<?xml version="1.0" encoding="UTF-8"?>
<svg version="1.1" xmlns="http://www.w3.org/2000/svg" width="512" height="512">
<path d="M0 0 C0.85407944 -0.00540298 1.70815887 -0.01080597 2.58811951 -0.01637268 C5.4092786 -0.02887319 8.2294199 -0.01236173 11.05053711 0.00561523 C13.01061558 0.00546029 14.97069435 0.00397209 16.93077087 0.00120544 C21.03731846 -0.00017909 25.14351701 0.01238987 29.25 0.03515625 C34.51848198 0.06355969 39.78638474 0.06079918 45.05490971 0.04806614 C49.10148584 0.04111793 53.14792763 0.04888811 57.19448662 0.06132317 C59.13738935 0.0658447 61.08030647 0.06616836 63.02321053 0.06225777 C65.73582763 0.05935348 68.44764065 0.07581408 71.16015625 0.09765625 C72.36884872 0.09090378 72.36884872 0.09090378 73.60195923 0.08401489 C78.98439331 0.15617493 78.98439331 0.15617493 81.4750824 1.77696228 C83.95436767 5.88745486 83.65481574 10.34288455 83.63563538 15.00604248 C83.6364898 15.76491737 83.63734423 16.52379225 83.63822454 17.30566335 C83.63987236 19.84987701 83.63436937 22.39402482 83.62890625 24.93823242 C83.6286242 26.76145933 83.62878246 28.58468636 83.62934875 30.40791321 C83.62963604 35.36000767 83.62375037 40.31207799 83.6167748 45.26416683 C83.61052986 50.43850012 83.60993656 55.61283394 83.60874939 60.78717041 C83.60563945 70.5866407 83.59743058 80.38609985 83.5873999 90.18556523 C83.57622833 101.34142972 83.57072568 112.49729474 83.56570446 123.65316343 C83.5552477 146.60268479 83.53765475 169.55219627 83.51538086 192.50170898 C84.90950195 191.77854492 84.90950195 191.77854492 86.33178711 191.04077148 C87.58031841 190.40242466 88.82902581 189.7644222 90.07788086 189.12670898 C90.68696289 188.80959961 91.29604492 188.49249023 91.92358398 188.16577148 C96.05239972 186.06859524 100.02620199 184.64566962 104.51538086 183.50170898 C104.50649841 182.20767151 104.49761597 180.91363403 104.48846436 179.5803833 C104.407445 167.39670976 104.3474473 155.21309075 104.30813217 143.02920914 C104.28724049 136.76504557 104.25889346 130.50109914 104.21362305 124.23706055 C104.1702225 118.19406749 104.14625567 112.15128353 104.13587189 106.10814667 C104.12847016 103.80039934 104.11401668 101.49266371 104.09246063 99.18500519 C104.06350436 95.95731197 104.0594217 92.73048735 104.0612793 89.50268555 C104.04689819 88.54458984 104.03251709 87.58649414 104.0177002 86.59936523 C104.04158525 82.77434484 104.07878842 80.25393004 106.02020264 76.90899658 C109.5859741 74.89789136 112.90641446 74.94342489 116.89233398 74.98413086 C117.73505356 74.97712158 118.57777313 74.9701123 119.44602966 74.96289062 C122.22989922 74.94529453 125.01275108 74.95693889 127.79663086 74.97045898 C129.73189489 74.96776453 131.6671576 74.9638825 133.60241699 74.9588623 C137.65768324 74.95296507 141.712597 74.96153749 145.76782227 74.98022461 C150.96681018 75.00301425 156.16497215 74.98989238 161.36392975 74.96593475 C165.35994697 74.95148288 169.35576827 74.95607997 173.35179138 74.96644592 C175.26875404 74.9691149 177.18573448 74.96583746 179.10267639 74.95652771 C181.78173969 74.94637216 184.4594642 74.96184872 187.13842773 74.98413086 C187.9312767 74.97603394 188.72412567 74.96793701 189.54100037 74.95959473 C192.90245906 75.01140876 195.01762269 75.11744879 197.72196007 77.20514774 C199.89137007 79.98318118 200.00220203 81.26709597 199.96707153 84.75462341 C199.96653275 85.81834671 199.96599396 86.88207001 199.96543884 87.97802734 C199.94469803 89.14011719 199.92395721 90.30220703 199.90258789 91.49951172 C199.89686264 92.72767105 199.89113739 93.95583038 199.88523865 95.22120667 C199.87111596 97.89202847 199.84996045 100.56179021 199.81784439 103.23235893 C199.76875681 107.46631794 199.75661762 111.69988587 199.75143433 115.93409729 C199.73163443 127.97419886 199.67281677 140.01368399 199.5534668 152.05322266 C199.48785493 158.70398637 199.45862626 165.35393112 199.4681443 172.00502163 C199.47148834 175.51908505 199.45623205 179.03081957 199.39514542 182.54440117 C198.41709606 200.12677458 198.41709606 200.12677458 205.41967773 215.55053711 C207.08993278 217.2295754 208.78455187 218.88518417 210.51538086 220.50170898 C212.21818876 223.09609102 213.58589572 225.75236852 214.89038086 228.56420898 C215.21216309 229.23484375 215.53394531 229.90547852 215.86547852 230.59643555 C226.02402618 252.23295664 227.55072164 276.11345306 220.44897461 298.92749023 C215.83766877 311.63521424 209.41256563 322.36343141 200.51538086 332.50170898 C199.32714313 333.89691436 198.13953249 335.29265435 196.95288086 336.68920898 C196.14850586 337.61733398 195.34413086 338.54545898 194.51538086 339.50170898 C197.15538086 343.13170898 199.79538086 346.76170898 202.51538086 350.50170898 C203.89725586 350.15108398 205.27913086 349.80045898 206.70288086 349.43920898 C217.12484944 347.40493506 226.63873287 348.5648925 235.51538086 354.50170898 C241.24275033 359.50881082 245.85197246 365.27752801 250.26538086 371.43920898 C250.85810791 372.25824707 251.45083496 373.07728516 252.06152344 373.92114258 C253.28261915 375.61184044 254.5004824 377.30487767 255.71508789 379.00024414 C257.45232785 381.4140983 259.21294752 383.80901396 260.98022461 386.20092773 C262.05522048 387.67562198 263.129474 389.15085773 264.20288086 390.62670898 C264.94199707 391.61852173 264.94199707 391.61852173 265.69604492 392.63037109 C271.65306055 400.93032647 273.65881803 409.34071053 272.51538086 419.50170898 C270.7475769 427.39369095 267.29763423 432.93116283 261.51538086 438.50170898 C260.77288086 439.24420898 260.03038086 439.98670898 259.26538086 440.75170898 C250.67694384 446.217078 241.8464291 447.81781705 231.88256836 446.02905273 C218.50959671 442.61424193 210.81513509 431.6194117 203.20288086 420.87670898 C202.07404478 419.29332562 200.94513769 417.70999288 199.81616211 416.12670898 C199.2626709 415.34811523 198.70917969 414.56952148 198.13891602 413.76733398 C196.63141434 411.6636324 195.1014275 409.57939241 193.55834961 407.50170898 C192.87929565 406.57865967 192.87929565 406.57865967 192.18652344 405.63696289 C190.97531611 403.9920571 189.75731881 402.35215706 188.53881836 400.71264648 C183.07468943 392.04177007 182.57507696 383.56496136 183.51538086 373.50170898 C184.30664739 370.65742659 185.25121804 368.16515391 186.54272461 365.51733398 C187.97625875 362.63275964 187.97625875 362.63275964 188.51538086 359.50170898 C186.87857141 356.81810184 186.87857141 356.81810184 184.57788086 354.25170898 C183.4505957 352.91366211 183.4505957 352.91366211 182.30053711 351.54858398 C181.71143555 350.87311523 181.12233398 350.19764648 180.51538086 349.50170898 C180.00265625 349.72834229 179.48993164 349.95497559 178.96166992 350.18847656 C153.37558338 361.42607369 127.75842489 366.0358275 100.82788086 356.25170898 C89.17950882 351.4222478 78.48826467 345.47459279 69.51538086 336.50170898 C66.31850913 336.18921894 66.31850913 336.18921894 62.4987793 336.23046875 C61.77660721 336.225242 61.05443512 336.22001526 60.31037903 336.21463013 C58.73948088 336.20437643 57.16854862 336.19860734 55.5976181 336.19674873 C53.1088826 336.19309191 50.62054808 336.17638272 48.13189697 336.1559906 C41.05521108 336.10052426 33.97846478 336.06994166 26.90161133 336.04541016 C22.57440419 336.0295047 18.24747874 335.99924893 13.92041779 335.96064568 C12.273084 335.94901595 10.62569973 335.9430655 8.97832489 335.94296455 C6.66843939 335.94277176 4.35932573 335.92445073 2.04956055 335.90234375 C0.73654968 335.8972731 -0.57646118 335.89220245 -1.92926025 335.88697815 C-5.77015844 335.4707671 -8.21130435 334.52252469 -11.48461914 332.50170898 C-12.84416782 329.78261163 -12.61994953 327.63887148 -12.63179016 324.59353638 C-12.63894547 323.33444458 -12.64610077 322.07535278 -12.6534729 320.77810669 C-12.65631327 319.37493921 -12.65902499 317.97177147 -12.66162109 316.56860352 C-12.66788466 315.09698322 -12.67453137 313.62536452 -12.68153381 312.15374756 C-12.69895149 308.1495984 -12.70949731 304.14546118 -12.71773934 300.14128351 C-12.72288707 297.64098941 -12.72896286 295.14069904 -12.73525047 292.64040756 C-12.7543033 284.82145083 -12.76853516 277.00250356 -12.77686244 269.18352807 C-12.78664117 260.15033672 -12.81297671 251.11739001 -12.85336334 242.0842849 C-12.883492 235.10674297 -12.89832815 228.1292713 -12.90164346 221.15166557 C-12.90399736 216.98196244 -12.91300172 212.81252062 -12.93810463 208.64288712 C-12.9613343 204.72105342 -12.96563947 200.79965405 -12.95534325 196.87776947 C-12.95484655 195.43780704 -12.96120644 193.99782359 -12.97489929 192.55792618 C-12.99253783 190.59331274 -12.98315302 188.62851188 -12.97236633 186.66384888 C-12.97475469 185.56398211 -12.97714304 184.46411533 -12.97960377 183.33091927 C-12.36583048 179.82274222 -11.3080186 178.61546843 -8.48461914 176.50170898 C-7.49461914 176.50170898 -6.50461914 176.50170898 -5.48461914 176.50170898 C-5.48461914 169.90170898 -5.48461914 163.30170898 -5.48461914 156.50170898 C-6.80461914 156.17170898 -8.12461914 155.84170898 -9.48461914 155.50170898 C-11.21038914 154.3112402 -11.21038914 154.3112402 -12.48461914 152.50170898 C-12.86493587 149.8323679 -12.86493587 149.8323679 -12.87229919 146.54920959 C-12.88220383 145.30557144 -12.89210846 144.06193329 -12.90231323 142.78060913 C-12.89807497 141.3999624 -12.89351708 140.01931661 -12.88867188 138.63867188 C-12.89437328 137.18660455 -12.90133664 135.73454171 -12.9094696 134.28248596 C-12.92744221 130.3361755 -12.92622495 126.39008689 -12.92052722 122.44374776 C-12.91744113 119.15089797 -12.92352137 115.85809116 -12.92956597 112.56524748 C-12.94362317 104.79769387 -12.94204013 97.03025022 -12.93066406 89.26269531 C-12.91918248 81.24587665 -12.93325631 73.2293925 -12.96006054 65.21261793 C-12.9822035 58.33269773 -12.98885808 51.45288264 -12.98298413 44.57292932 C-12.97960984 40.46251477 -12.98206057 36.35231465 -12.99923515 32.24193001 C-13.01467995 28.37667241 -13.01077672 24.51191101 -12.99193001 20.6466732 C-12.98823716 19.22768881 -12.99137292 17.80866787 -13.0018158 16.3897171 C-13.01497755 14.45357947 -13.00109994 12.51731412 -12.98582458 10.58119202 C-12.9856153 9.49737275 -12.98540602 8.41355349 -12.98519039 7.29689121 C-11.6861313 0.04296509 -6.28850318 -0.07563979 0 0 Z " fill="#000000" transform="translate(239.484619140625,-0.501708984375)"/>
<path d="M0 0 C1.26386032 -0.01007584 1.26386032 -0.01007584 2.55325317 -0.02035522 C5.34228388 -0.03937426 8.13107448 -0.04326125 10.92016602 -0.04541016 C12.85685832 -0.05183493 14.79354963 -0.05856304 16.73023987 -0.06558228 C20.79137422 -0.0775645 24.85242344 -0.08126208 28.91357422 -0.08007812 C34.12037717 -0.07987478 39.32663525 -0.1071886 44.53330898 -0.14162254 C48.53357964 -0.16384621 52.53371818 -0.16791708 56.53404427 -0.16685867 C58.45381614 -0.16922103 60.37359132 -0.17808009 62.29330254 -0.19352341 C64.97717479 -0.21309368 67.65985911 -0.20738119 70.34375 -0.1953125 C71.13817001 -0.20655151 71.93259003 -0.21779053 72.75108337 -0.22937012 C75.9579122 -0.19267861 78.22873432 -0.04412658 80.9400568 1.74257469 C83.63287942 5.56173721 83.29040745 8.98259895 83.24450684 13.55224609 C83.2507468 14.50022568 83.25698676 15.44820526 83.26341581 16.4249115 C83.27940309 19.60953455 83.2667189 22.79339827 83.25415039 25.97802734 C83.25956894 28.25781705 83.2666901 30.53760326 83.27539062 32.81738281 C83.29365845 39.01565094 83.28654203 45.21365337 83.27387428 51.41192627 C83.26376459 57.89099863 83.27313431 64.37004786 83.27941895 70.84912109 C83.28716805 82.42816465 83.27471816 94.00708666 83.2543816 105.58611107 C83.23651031 116.08660152 83.23961434 126.58691509 83.25805664 137.08740234 C83.27945852 149.27870713 83.28743305 161.46988594 83.27560759 173.66120911 C83.26936349 180.11565397 83.26856226 186.56997697 83.28175354 193.02441406 C83.29328701 199.09177816 83.2853318 205.15880742 83.26217651 211.22613525 C83.25687607 213.45623213 83.25842588 215.68635706 83.26722717 217.91644287 C83.27811325 220.95428179 83.26450259 223.99103911 83.24450684 227.02880859 C83.25342972 227.91712875 83.26235261 228.80544891 83.27154589 229.72068787 C83.19534501 235.66456082 83.19534501 235.66456082 80.89232635 238.80688477 C76.75377937 241.65513381 72.77631931 241.44444556 67.94799805 241.45166016 C66.75969894 241.45910751 66.75969894 241.45910751 65.5473938 241.46670532 C62.92554863 241.4813155 60.30376396 241.4881268 57.68188477 241.49365234 C55.85969033 241.49940444 54.03749591 241.50516217 52.21530151 241.51092529 C48.39377561 241.52143182 44.57227073 241.52727686 40.75073242 241.53076172 C35.85576982 241.53624775 30.96108519 241.56027954 26.06620979 241.58873367 C22.30182078 241.60736339 18.5374987 241.61256582 14.77306747 241.6140976 C12.96856032 241.61712356 11.16405434 241.62515021 9.35959244 241.63828278 C6.8341586 241.65535144 4.30940378 241.65346125 1.78393555 241.64697266 C1.0398645 241.65618744 0.29579346 241.66540222 -0.4708252 241.67489624 C-4.90456041 241.63923963 -7.79375198 241.11546763 -11.26342773 238.29052734 C-12.92583079 235.5272581 -13.51358978 233.47587662 -13.51511002 230.26715946 C-13.52032551 229.47154797 -13.52554101 228.67593647 -13.53091455 227.85621554 C-13.5264531 226.98803224 -13.52199166 226.11984894 -13.51739502 225.22535706 C-13.52207499 223.83507267 -13.52207499 223.83507267 -13.52684951 222.41670173 C-13.53484166 219.3036972 -13.52850105 216.19088693 -13.5222168 213.07788086 C-13.52492613 210.84897751 -13.52848674 208.62007506 -13.53283691 206.39117432 C-13.5419705 200.33132912 -13.5384125 194.27155186 -13.53207874 188.21170545 C-13.52702315 181.87591188 -13.53170903 175.54012423 -13.53485107 169.20433044 C-13.53872566 157.88027746 -13.53250083 146.55625903 -13.5223324 135.23221295 C-13.51339897 124.96574706 -13.51494701 114.6993264 -13.52416992 104.43286133 C-13.53487451 92.51149032 -13.53885598 80.59014679 -13.53294539 68.6687693 C-13.52982477 62.35796551 -13.52941886 56.04719287 -13.53601837 49.73639107 C-13.54178956 43.80290242 -13.53779901 37.8694993 -13.52622986 31.9360199 C-13.52358195 29.75632812 -13.52435058 27.57662917 -13.52875519 25.39694023 C-13.53420689 22.42542291 -13.52738087 19.45418098 -13.51739502 16.48268127 C-13.52185646 15.6167287 -13.52631791 14.75077612 -13.53091455 13.85858256 C-13.50315278 9.60970989 -13.42773518 6.07832962 -11.26342773 2.29052734 C-7.4633212 -0.24287701 -4.40412711 -0.005012 0 0 Z " fill="#FFD05A" transform="translate(126.263427734375,93.70947265625)"/>
<path d="M0 0 C0.84271957 -0.00554901 1.68543915 -0.01109802 2.55369568 -0.01681519 C5.33780884 -0.02862079 8.12029769 -0.00432781 10.90429688 0.02148438 C12.83955816 0.0231953 14.77482177 0.02312998 16.71008301 0.0213623 C20.76544372 0.02301606 24.82025199 0.04172442 28.87548828 0.07324219 C34.07439114 0.11291993 39.27257023 0.1172878 44.47159576 0.10977936 C48.46761712 0.10671019 52.46347568 0.11882829 56.4594574 0.13591003 C58.37640868 0.14294269 60.29337841 0.14606425 62.21034241 0.1452179 C64.88926556 0.14701511 67.56732064 0.16839016 70.24609375 0.1953125 C71.03894272 0.1923819 71.83179169 0.18945129 72.64866638 0.18643188 C75.87091631 0.23641056 78.22652804 0.39953962 81.08410645 1.95397949 C84.33314661 5.46125225 83.76880344 9.70964575 83.76348877 14.19345093 C83.76645989 14.97244487 83.76943101 15.75143882 83.77249217 16.55403864 C83.78118576 19.17259255 83.78268797 21.79110077 83.78417969 24.40966797 C83.78880735 26.28374835 83.79383194 28.15782779 83.79922485 30.03190613 C83.81235479 35.12900872 83.81879482 40.22609814 83.82323551 45.32321501 C83.82616493 48.50612408 83.83026946 51.68902954 83.83473969 54.8719368 C83.8484154 64.82610507 83.85808203 74.7802651 83.86194158 84.73444211 C83.86642441 96.23355691 83.88398248 107.73255296 83.91294217 119.23163164 C83.93453943 128.11492641 83.94464479 136.99818772 83.94598269 145.88150847 C83.94703201 151.18967158 83.95296685 156.49772309 83.97080231 161.80585861 C83.98724945 166.79793205 83.98945484 171.78980957 83.9806633 176.78190041 C83.97989116 178.61489829 83.98425891 180.44790656 83.99412155 182.28087807 C84.00679012 184.78183706 84.00099227 187.28209679 83.99053955 189.78305054 C84.00262416 190.87289137 84.00262416 190.87289137 84.0149529 191.9847492 C83.97204557 196.3695634 83.27793271 199.10725704 80.62304688 202.61523438 C77.09731055 205.31389515 72.97323017 204.89714586 68.72094727 204.87402344 C67.92860184 204.87752808 67.13625641 204.88103271 66.31990051 204.88464355 C63.70341198 204.89343837 61.08719437 204.88761912 58.47070312 204.88085938 C56.64993742 204.88220681 54.82917207 204.88414799 53.00840759 204.88665771 C49.19282607 204.88960604 45.37733821 204.88532118 41.56176758 204.87597656 C36.67472647 204.86459031 31.78790524 204.8711381 26.90087223 204.88312149 C23.14076588 204.89035485 19.38071149 204.88804523 15.62060356 204.88286591 C13.8189027 204.88153308 12.01719711 204.88316428 10.21550179 204.88782501 C7.69505479 204.89291358 5.17496171 204.88514696 2.65454102 204.87402344 C1.91204102 204.8780719 1.16954102 204.88212036 0.40454102 204.8862915 C-3.61060331 204.85352413 -6.83137096 204.57141413 -10.37695312 202.61523438 C-12.79841092 198.98304768 -12.67276547 196.30071733 -12.66748047 192.10205078 C-12.67419769 191.33911209 -12.68091492 190.5761734 -12.68783569 189.79011536 C-12.70684803 187.26560978 -12.71074156 184.74136961 -12.71289062 182.21679688 C-12.71931656 180.46186208 -12.72604476 178.70692837 -12.73306274 176.95199585 C-12.74504377 173.27168291 -12.74874275 169.59146389 -12.74755859 165.91113281 C-12.74735541 161.19764578 -12.77465269 156.48476176 -12.80910301 151.77141762 C-12.8313533 148.14597819 -12.83539671 144.52068428 -12.83433914 140.89518356 C-12.83669811 139.15765684 -12.84553832 137.42012628 -12.86100388 135.68266678 C-12.8806256 133.25041897 -12.87484158 130.81947637 -12.86279297 128.38720703 C-12.87403198 127.6711882 -12.885271 126.95516937 -12.89685059 126.217453 C-12.85212115 122.65969105 -12.41934735 120.68392009 -10.53408813 117.62948608 C-8.37695312 115.61523438 -8.37695312 115.61523438 -5.37695312 115.61523438 C-5.37695312 109.01523438 -5.37695312 102.41523438 -5.37695312 95.61523438 C-6.69695313 95.28523438 -8.01695313 94.95523438 -9.37695312 94.61523438 C-12.11604261 92.15142783 -12.3741473 90.64182701 -12.76463318 86.94093323 C-12.7854694 85.4400049 -12.78975216 83.93879161 -12.78100586 82.43774414 C-12.78786911 81.616138 -12.79473236 80.79453186 -12.80180359 79.94802856 C-12.82009409 77.23405643 -12.81623088 74.52066113 -12.81054688 71.80664062 C-12.81510769 69.91861279 -12.82041296 68.03058662 -12.82643127 66.14256287 C-12.83536686 62.18571224 -12.83293426 58.22906339 -12.82299805 54.2722168 C-12.8115094 49.20338644 -12.83171593 44.13525283 -12.86091518 39.06651402 C-12.87926837 35.16741008 -12.87898646 31.26847337 -12.87327766 27.36933708 C-12.87312433 25.50064047 -12.87917844 23.6319326 -12.89156914 21.76327705 C-12.90646034 19.14911425 -12.89581632 16.53624178 -12.87866211 13.92211914 C-12.88833008 13.15156693 -12.89799805 12.38101471 -12.90795898 11.58711243 C-12.86053271 8.132692 -12.43448774 5.72897318 -10.86915588 2.63450623 C-7.38952495 -0.18481527 -4.28906826 -0.07175006 0 0 Z " fill="#98E5FB" transform="translate(12.376953125,130.384765625)"/>
<path d="M0 0 C0.97839844 0.35191406 1.95679688 0.70382813 2.96484375 1.06640625 C24.41655495 9.43174537 39.04206251 23.35979271 48.52734375 44.1015625 C52.1456968 53.21628562 53.48355182 61.64974386 53.375 71.4375 C53.38660156 72.47970703 53.39820313 73.52191406 53.41015625 74.59570312 C53.33630172 94.4502623 44.7719378 112.96468446 31.05859375 127.1015625 C15.13540666 142.69999699 -4.57534705 148.30886464 -26.25268555 148.38720703 C-35.72821291 148.26524276 -43.28975825 146.7470847 -52 143 C-53.62615234 142.31357422 -53.62615234 142.31357422 -55.28515625 141.61328125 C-62.34703383 138.35463989 -68.20420187 134.15619392 -74 129 C-74.68707031 128.40703125 -75.37414062 127.8140625 -76.08203125 127.203125 C-88.00170563 116.20034865 -97.3638067 98.74485356 -98.12109375 82.38378906 C-98.20730701 79.21339921 -98.23496921 76.04649586 -98.25 72.875 C-98.270625 71.81023437 -98.29125 70.74546875 -98.3125 69.6484375 C-98.36421677 58.99478353 -96.27740226 49.38211492 -91.3125 39.9375 C-90.96364746 39.26195068 -90.61479492 38.58640137 -90.25537109 37.89038086 C-80.72488857 19.88431654 -65.64427001 6.22720351 -46 0 C-45.08605469 -0.29777344 -44.17210937 -0.59554687 -43.23046875 -0.90234375 C-29.62514646 -4.69227306 -13.34006151 -4.83504413 0 0 Z " fill="#3B85CD" transform="translate(395,197)"/>
<path d="M0 0 C21.45 0 42.9 0 65 0 C65.2033323 24.84373162 65.36904878 49.68678732 65.46630955 74.53114033 C65.51267411 86.06736905 65.57586076 97.60304326 65.67895508 109.13891602 C65.76879229 119.19618092 65.82675522 129.25304415 65.84679645 139.31069916 C65.85850788 144.63408948 65.8859381 149.95633092 65.95157051 155.27935219 C66.01291573 160.295573 66.03145361 165.31017805 66.01796913 170.32673836 C66.02043386 172.16213531 66.03818742 173.9975894 66.07284927 175.83266068 C66.35211538 191.38791647 66.35211538 191.38791647 60.58946228 198.451828 C59.07670332 199.98491043 57.54902585 201.50357082 56 203 C44.90574785 218.11220221 40.62647122 236.0008297 40.75 254.4375 C40.74226563 255.58798828 40.73453125 256.73847656 40.7265625 257.92382812 C40.74949293 268.04188024 41.9163827 277.19742648 45.8125 286.5625 C46.29332031 287.73941406 46.77414062 288.91632813 47.26953125 290.12890625 C49.36687438 294.82070545 51.70166025 299.40332051 54 304 C36.18 304 18.36 304 0 304 C-0.33 257.47 -0.66 210.94 -1 163 C-3.31 162.34 -5.62 161.68 -8 161 C-8 154.4 -8 147.8 -8 141 C-6.02 140.01 -4.04 139.02 -2 138 C-0.28374661 136.28374661 -0.85676738 134.02289672 -0.84178162 131.67869568 C-0.8319928 130.52458191 -0.82220398 129.37046814 -0.81211853 128.18138123 C-0.80636307 126.90392532 -0.8006076 125.62646942 -0.79467773 124.31030273 C-0.78510436 122.96041561 -0.77509461 121.61053152 -0.76467896 120.26065063 C-0.73756517 116.58522657 -0.71659079 112.90978958 -0.69667697 109.2343204 C-0.6748572 105.39724271 -0.64744896 101.56020515 -0.62062073 97.72315979 C-0.57063946 90.45231693 -0.52572087 83.18145186 -0.48259836 75.91056544 C-0.42405669 66.08883999 -0.35774074 56.26716729 -0.29184818 46.44548893 C-0.18818852 30.96369478 -0.09495592 15.48185564 0 0 Z " fill="#99E49B" transform="translate(242,15)"/>
<path d="M0 0 C1.26386032 -0.01007584 1.26386032 -0.01007584 2.55325317 -0.02035522 C5.34228388 -0.03937426 8.13107448 -0.04326125 10.92016602 -0.04541016 C12.85685832 -0.05183493 14.79354963 -0.05856304 16.73023987 -0.06558228 C20.79137422 -0.0775645 24.85242344 -0.08126208 28.91357422 -0.08007812 C34.12037717 -0.07987478 39.32663525 -0.1071886 44.53330898 -0.14162254 C48.53357964 -0.16384621 52.53371818 -0.16791708 56.53404427 -0.16685867 C58.45381614 -0.16922103 60.37359132 -0.17808009 62.29330254 -0.19352341 C64.97717479 -0.21309368 67.65985911 -0.20738119 70.34375 -0.1953125 C71.13817001 -0.20655151 71.93259003 -0.21779053 72.75108337 -0.22937012 C75.9579122 -0.19267861 78.22873432 -0.04412658 80.9400568 1.74257469 C83.63287942 5.56173721 83.29040745 8.98259895 83.24450684 13.55224609 C83.2507468 14.50022568 83.25698676 15.44820526 83.26341581 16.4249115 C83.27940309 19.60953455 83.2667189 22.79339827 83.25415039 25.97802734 C83.25956894 28.25781705 83.2666901 30.53760326 83.27539062 32.81738281 C83.29365845 39.01565094 83.28654203 45.21365337 83.27387428 51.41192627 C83.26376459 57.89099863 83.27313431 64.37004786 83.27941895 70.84912109 C83.28716805 82.42816465 83.27471816 94.00708666 83.2543816 105.58611107 C83.23651031 116.08660152 83.23961434 126.58691509 83.25805664 137.08740234 C83.27945852 149.27870713 83.28743305 161.46988594 83.27560759 173.66120911 C83.26936349 180.11565397 83.26856226 186.56997697 83.28175354 193.02441406 C83.29328701 199.09177816 83.2853318 205.15880742 83.26217651 211.22613525 C83.25687607 213.45623213 83.25842588 215.68635706 83.26722717 217.91644287 C83.27811325 220.95428179 83.26450259 223.99103911 83.24450684 227.02880859 C83.25342972 227.91712875 83.26235261 228.80544891 83.27154589 229.72068787 C83.19534501 235.66456082 83.19534501 235.66456082 80.89232635 238.80688477 C76.75377937 241.65513381 72.77631931 241.44444556 67.94799805 241.45166016 C66.75969894 241.45910751 66.75969894 241.45910751 65.5473938 241.46670532 C62.92554863 241.4813155 60.30376396 241.4881268 57.68188477 241.49365234 C55.85969033 241.49940444 54.03749591 241.50516217 52.21530151 241.51092529 C48.39377561 241.52143182 44.57227073 241.52727686 40.75073242 241.53076172 C35.85576982 241.53624775 30.96108519 241.56027954 26.06620979 241.58873367 C22.30182078 241.60736339 18.5374987 241.61256582 14.77306747 241.6140976 C12.96856032 241.61712356 11.16405434 241.62515021 9.35959244 241.63828278 C6.8341586 241.65535144 4.30940378 241.65346125 1.78393555 241.64697266 C1.0398645 241.65618744 0.29579346 241.66540222 -0.4708252 241.67489624 C-4.90456041 241.63923963 -7.79375198 241.11546763 -11.26342773 238.29052734 C-12.92583079 235.5272581 -13.51358978 233.47587662 -13.51511002 230.26715946 C-13.52032551 229.47154797 -13.52554101 228.67593647 -13.53091455 227.85621554 C-13.5264531 226.98803224 -13.52199166 226.11984894 -13.51739502 225.22535706 C-13.52207499 223.83507267 -13.52207499 223.83507267 -13.52684951 222.41670173 C-13.53484166 219.3036972 -13.52850105 216.19088693 -13.5222168 213.07788086 C-13.52492613 210.84897751 -13.52848674 208.62007506 -13.53283691 206.39117432 C-13.5419705 200.33132912 -13.5384125 194.27155186 -13.53207874 188.21170545 C-13.52702315 181.87591188 -13.53170903 175.54012423 -13.53485107 169.20433044 C-13.53872566 157.88027746 -13.53250083 146.55625903 -13.5223324 135.23221295 C-13.51339897 124.96574706 -13.51494701 114.6993264 -13.52416992 104.43286133 C-13.53487451 92.51149032 -13.53885598 80.59014679 -13.53294539 68.6687693 C-13.52982477 62.35796551 -13.52941886 56.04719287 -13.53601837 49.73639107 C-13.54178956 43.80290242 -13.53779901 37.8694993 -13.52622986 31.9360199 C-13.52358195 29.75632812 -13.52435058 27.57662917 -13.52875519 25.39694023 C-13.53420689 22.42542291 -13.52738087 19.45418098 -13.51739502 16.48268127 C-13.52185646 15.6167287 -13.52631791 14.75077612 -13.53091455 13.85858256 C-13.50315278 9.60970989 -13.42773518 6.07832962 -11.26342773 2.29052734 C-7.4633212 -0.24287701 -4.40412711 -0.005012 0 0 Z M2.73657227 15.29052734 C2.73657227 84.59052734 2.73657227 153.89052734 2.73657227 225.29052734 C24.18657227 225.29052734 45.63657227 225.29052734 67.73657227 225.29052734 C67.73657227 155.99052734 67.73657227 86.69052734 67.73657227 15.29052734 C46.28657227 15.29052734 24.83657227 15.29052734 2.73657227 15.29052734 Z " fill="#000000" transform="translate(126.263427734375,93.70947265625)"/>
<path d="M0 0 C0.84271957 -0.00554901 1.68543915 -0.01109802 2.55369568 -0.01681519 C5.33780884 -0.02862079 8.12029769 -0.00432781 10.90429688 0.02148438 C12.83955816 0.0231953 14.77482177 0.02312998 16.71008301 0.0213623 C20.76544372 0.02301606 24.82025199 0.04172442 28.87548828 0.07324219 C34.07439114 0.11291993 39.27257023 0.1172878 44.47159576 0.10977936 C48.46761712 0.10671019 52.46347568 0.11882829 56.4594574 0.13591003 C58.37640868 0.14294269 60.29337841 0.14606425 62.21034241 0.1452179 C64.88926556 0.14701511 67.56732064 0.16839016 70.24609375 0.1953125 C71.03894272 0.1923819 71.83179169 0.18945129 72.64866638 0.18643188 C75.87091631 0.23641056 78.22652804 0.39953962 81.08410645 1.95397949 C84.33314661 5.46125225 83.76880344 9.70964575 83.76348877 14.19345093 C83.76645989 14.97244487 83.76943101 15.75143882 83.77249217 16.55403864 C83.78118576 19.17259255 83.78268797 21.79110077 83.78417969 24.40966797 C83.78880735 26.28374835 83.79383194 28.15782779 83.79922485 30.03190613 C83.81235479 35.12900872 83.81879482 40.22609814 83.82323551 45.32321501 C83.82616493 48.50612408 83.83026946 51.68902954 83.83473969 54.8719368 C83.8484154 64.82610507 83.85808203 74.7802651 83.86194158 84.73444211 C83.86642441 96.23355691 83.88398248 107.73255296 83.91294217 119.23163164 C83.93453943 128.11492641 83.94464479 136.99818772 83.94598269 145.88150847 C83.94703201 151.18967158 83.95296685 156.49772309 83.97080231 161.80585861 C83.98724945 166.79793205 83.98945484 171.78980957 83.9806633 176.78190041 C83.97989116 178.61489829 83.98425891 180.44790656 83.99412155 182.28087807 C84.00679012 184.78183706 84.00099227 187.28209679 83.99053955 189.78305054 C84.00262416 190.87289137 84.00262416 190.87289137 84.0149529 191.9847492 C83.97204557 196.3695634 83.27793271 199.10725704 80.62304688 202.61523438 C77.09731055 205.31389515 72.97323017 204.89714586 68.72094727 204.87402344 C67.92860184 204.87752808 67.13625641 204.88103271 66.31990051 204.88464355 C63.70341198 204.89343837 61.08719437 204.88761912 58.47070312 204.88085938 C56.64993742 204.88220681 54.82917207 204.88414799 53.00840759 204.88665771 C49.19282607 204.88960604 45.37733821 204.88532118 41.56176758 204.87597656 C36.67472647 204.86459031 31.78790524 204.8711381 26.90087223 204.88312149 C23.14076588 204.89035485 19.38071149 204.88804523 15.62060356 204.88286591 C13.8189027 204.88153308 12.01719711 204.88316428 10.21550179 204.88782501 C7.69505479 204.89291358 5.17496171 204.88514696 2.65454102 204.87402344 C1.91204102 204.8780719 1.16954102 204.88212036 0.40454102 204.8862915 C-3.61060331 204.85352413 -6.83137096 204.57141413 -10.37695312 202.61523438 C-12.79841092 198.98304768 -12.67276547 196.30071733 -12.66748047 192.10205078 C-12.67419769 191.33911209 -12.68091492 190.5761734 -12.68783569 189.79011536 C-12.70684803 187.26560978 -12.71074156 184.74136961 -12.71289062 182.21679688 C-12.71931656 180.46186208 -12.72604476 178.70692837 -12.73306274 176.95199585 C-12.74504377 173.27168291 -12.74874275 169.59146389 -12.74755859 165.91113281 C-12.74735541 161.19764578 -12.77465269 156.48476176 -12.80910301 151.77141762 C-12.8313533 148.14597819 -12.83539671 144.52068428 -12.83433914 140.89518356 C-12.83669811 139.15765684 -12.84553832 137.42012628 -12.86100388 135.68266678 C-12.8806256 133.25041897 -12.87484158 130.81947637 -12.86279297 128.38720703 C-12.87403198 127.6711882 -12.885271 126.95516937 -12.89685059 126.217453 C-12.85219807 122.66580922 -12.43144012 120.70228841 -10.53018188 117.66464233 C-8.37695312 115.61523438 -8.37695312 115.61523438 -5.43945312 115.05273438 C-1.61921419 115.75441091 -0.0909365 116.84911642 2.62304688 119.61523438 C3.22431946 122.71575928 3.22431946 122.71575928 3.19067383 126.40332031 C3.19176903 127.41369102 3.19176903 127.41369102 3.19288635 128.44447327 C3.18941181 130.66368063 3.15056373 132.88077032 3.11132812 135.09960938 C3.10199936 136.64087782 3.09488354 138.18216112 3.08988953 139.72344971 C3.07082425 143.77460874 3.02172892 147.82486741 2.96636963 151.87567139 C2.90615939 156.73887017 2.88325851 161.60237051 2.85410309 166.46583557 C2.805662 173.84959415 2.70984769 181.23137838 2.62304688 188.61523438 C24.07304688 188.61523438 45.52304687 188.61523438 67.62304688 188.61523438 C67.62304688 131.52523437 67.62304688 74.43523437 67.62304688 15.61523438 C46.17304687 15.61523438 24.72304688 15.61523438 2.62304688 15.61523438 C2.66945313 21.05507812 2.71585938 26.49492187 2.76367188 32.09960938 C2.78410899 35.54494095 2.80336458 38.99019783 2.81835938 42.43554688 C2.84227521 47.90478019 2.87057366 53.37374576 2.92480469 58.84277344 C2.96825176 63.2518431 2.99218166 67.66062568 3.00255585 72.06989288 C3.0099493 73.75244924 3.02438704 75.4349898 3.0459671 77.11742401 C3.07498691 79.47348538 3.07900362 81.82835911 3.07714844 84.18457031 C3.09872009 85.22898285 3.09872009 85.22898285 3.12072754 86.29449463 C3.09243671 89.61291532 2.81851788 91.3528329 0.81341553 94.04449463 C-2.41313251 96.35829109 -4.51147185 96.23647244 -8.37695312 95.61523438 C-11.48861268 92.74471063 -12.31906539 91.04768814 -12.8848877 86.82067871 C-12.90853399 85.32204182 -12.91031211 83.8229591 -12.89453125 82.32421875 C-12.90154053 81.50246658 -12.9085498 80.68071442 -12.91577148 79.83406067 C-12.93333617 77.12535529 -12.92173448 74.41769985 -12.90820312 71.70898438 C-12.91089849 69.82238566 -12.91478127 67.9357883 -12.9197998 66.04919434 C-12.92569278 62.09825392 -12.91713838 58.14767562 -12.8984375 54.19677734 C-12.87564806 49.1357923 -12.88877222 44.07565577 -12.91272736 39.01470184 C-12.92719077 35.1198692 -12.92257685 31.22523729 -12.91221619 27.33039856 C-12.9095504 25.46450195 -12.91281345 23.59858703 -12.9221344 21.73271179 C-12.93230901 19.12340111 -12.91678695 16.51545891 -12.89453125 13.90625 C-12.90667664 12.75277824 -12.90667664 12.75277824 -12.91906738 11.57600403 C-12.86464864 8.127095 -12.43218453 5.72431194 -10.86816406 2.63549805 C-7.3894821 -0.18556166 -4.28919893 -0.07175225 0 0 Z " fill="#000000" transform="translate(12.376953125,130.384765625)"/>
<path d="M0 0 C21.45 0 42.9 0 65 0 C65 34.65 65 69.3 65 105 C60.05 102.36 55.1 99.72 50 97 C46.44361406 95.69119037 43.12362462 94.5387678 39.5 93.5625 C38.67242187 93.32080078 37.84484375 93.07910156 36.9921875 92.83007812 C24.4785162 89.26467495 13.58577662 90 0 90 C0 60.3 0 30.6 0 0 Z " fill="#FC4654" transform="translate(359,90)"/>
<path d="M0 0 C2.97163556 1.7301301 5.46846853 3.6812964 8 6 C8.60328125 6.51304687 9.2065625 7.02609375 9.828125 7.5546875 C17.6716557 14.68206975 22.28150883 24.23131418 23.25 34.703125 C23.78323683 47.43415439 19.51916603 59.62304897 11.0703125 69.18359375 C1.11322123 78.83066569 -10.75317237 82.4251332 -24.3046875 82.26953125 C-35.7649472 81.43363493 -45.23324141 76.04544953 -53.1015625 67.796875 C-57.09110075 62.94152206 -59.82237379 57.87630793 -62 52 C-62.4125 50.948125 -62.825 49.89625 -63.25 48.8125 C-65.67735156 36.47346289 -63.87929752 25.92662117 -57.25 15.3125 C-43.76056241 -3.47875634 -21.28206252 -9.70918954 0 0 Z " fill="#98E5FA" transform="translate(393,231)"/>
<path d="M0 0 C0.91313965 0.00757324 1.8262793 0.01514648 2.76708984 0.02294922 C17.96007449 0.38959338 31.54966904 5.78058199 42.6875 16.2421875 C53.81400426 28.0851712 60.4299277 42.95505455 59.96875 59.25 C58.80512425 76.20568954 52.32878212 90.32438175 40.125 102.1875 C27.45905482 113.02737333 11.37796018 117.93482191 -5.15917969 116.69628906 C-21.04232206 114.73036999 -35.1025231 106.23349363 -45.2578125 94.0234375 C-55.23554675 80.41743625 -58.59771021 66.19004966 -57.25 49.4375 C-54.44904351 33.77227028 -46.17775115 19.96940818 -33.25 10.625 C-22.84050475 3.75409841 -12.59322536 -0.14815559 0 0 Z M-33.0625 31.48046875 C-41.10504646 41.5537582 -43.1502018 51.75639644 -42.25 64.4375 C-40.02612861 76.84585247 -33.70277208 86.66321524 -23.4765625 94.0078125 C-12.87460799 100.81538329 -2.00937066 103.17249923 10.5625 100.9375 C21.67293882 97.88212932 31.69051836 91.56926735 38 81.8125 C44.16618575 70.69314865 46.87107449 58.77198351 43.625 46.3125 C39.72629801 35.03153359 32.36518293 25.10947398 21.6875 19.5 C1.60330827 9.92138548 -18.66490624 15.25214647 -33.0625 31.48046875 Z " fill="#010304" transform="translate(371.25,211.5625)"/>
<path d="M0 0 C0.82127884 -0.00960754 1.64255768 -0.01921509 2.48872375 -0.02911377 C3.81531258 -0.03548859 3.81531258 -0.03548859 5.16870117 -0.04199219 C6.53933968 -0.0505423 6.53933968 -0.0505423 7.93766785 -0.05926514 C9.87184492 -0.06871136 11.80603807 -0.07524762 13.74023438 -0.07910156 C16.68998528 -0.08879592 19.63903599 -0.11981817 22.58862305 -0.15136719 C24.46947829 -0.15789867 26.35033851 -0.16314857 28.23120117 -0.16699219 C29.10952103 -0.17933899 29.98784088 -0.19168579 30.89277649 -0.20440674 C35.9897443 -0.18599353 39.47711168 0.34017204 43.89916992 3.16113281 C48.44973296 8.02552778 48.06895364 13.47856599 48.10229492 19.83691406 C48.107995 20.68029831 48.11369507 21.52368256 48.11956787 22.3926239 C48.12900089 24.17539217 48.1355451 25.95817775 48.1394043 27.7409668 C48.14909834 30.45360103 48.1801326 33.16547348 48.21166992 35.87792969 C48.21820186 37.61425334 48.22345158 39.35058238 48.22729492 41.08691406 C48.23964172 41.89131424 48.25198853 42.69571442 48.26470947 43.52449036 C48.24448065 48.69692451 47.56474587 52.58621001 44.89916992 57.16113281 C39.9575158 61.79770006 35.32250491 61.7493695 28.89916992 61.69238281 C27.46831055 61.69812317 27.46831055 61.69812317 26.00854492 61.70397949 C23.99811748 61.70669317 21.9876544 61.69937018 19.97729492 61.68261719 C16.90878205 61.6611999 13.8426104 61.68243748 10.77416992 61.70800781 C8.81583145 61.70536444 6.85749442 61.70023927 4.89916992 61.69238281 C3.53018555 61.7045282 3.53018555 61.7045282 2.13354492 61.71691895 C-3.42537629 61.63552194 -6.72824625 60.92907028 -11.10083008 57.16113281 C-14.52960356 52.01797258 -14.25998829 46.8547127 -14.26879883 40.82519531 C-14.27212723 40.0276181 -14.27545563 39.23004089 -14.27888489 38.40829468 C-14.2839332 36.72565281 -14.28629386 35.04300099 -14.28613281 33.36035156 C-14.28831689 30.80158799 -14.30648804 28.24325759 -14.32543945 25.68457031 C-14.3283744 24.04394678 -14.33035852 22.40332121 -14.33129883 20.76269531 C-14.33848434 20.00517975 -14.34566986 19.24766418 -14.35307312 18.4671936 C-14.33292004 13.72406245 -13.75023446 9.67018893 -12.10083008 5.16113281 C-8.33507321 1.49193381 -5.21207058 0.0493342 0 0 Z " fill="#010000" transform="translate(227.100830078125,364.8388671875)"/>
<path d="M0 0 C1.26679092 -0.01441132 1.26679092 -0.01441132 2.55917358 -0.02911377 C3.92327866 -0.03548859 3.92327866 -0.03548859 5.31494141 -0.04199219 C6.25326813 -0.04769226 7.19159485 -0.05339233 8.15835571 -0.05926514 C10.14380771 -0.06871113 12.12927536 -0.07524753 14.11474609 -0.07910156 C17.14790254 -0.08880766 20.18038147 -0.11983505 23.21337891 -0.15136719 C25.14306239 -0.15789742 27.07275071 -0.16314781 29.00244141 -0.16699219 C29.90779633 -0.17933899 30.81315125 -0.19168579 31.74594116 -0.20440674 C38.11443995 -0.18194343 41.27544661 0.89735435 46.07299805 5.21386719 C48.59524537 9.53956255 48.34625697 13.39431255 48.28759766 18.31738281 C48.28905289 19.29727173 48.29050812 20.27716064 48.29200745 21.28674316 C48.29035057 23.35444111 48.27881304 25.42215166 48.25805664 27.48974609 C48.22910338 30.65027382 48.23745233 33.80912323 48.25048828 36.96972656 C48.24425045 38.98145345 48.23585916 40.99317504 48.22509766 43.00488281 C48.22803329 43.94771118 48.23096893 44.89053955 48.23399353 45.86193848 C48.11235904 54.34303491 48.11235904 54.34303491 44.79150391 58.16113281 C40.2843951 62.08609127 35.305097 61.59608938 29.63525391 61.55957031 C28.65536499 61.56244049 27.67547607 61.56531067 26.66589355 61.56826782 C24.59822002 61.57030545 22.53052707 61.56479673 20.46289062 61.55224609 C17.30245764 61.53618847 14.14330348 61.55210535 10.98291016 61.57128906 C8.97118859 61.56930658 6.95946782 61.56546279 4.94775391 61.55957031 C3.53351135 61.56867935 3.53351135 61.56867935 2.09069824 61.57797241 C-6.51956558 61.48590867 -6.51956558 61.48590867 -10.20849609 58.16113281 C-13.73514118 53.08309142 -13.64737586 48.29795575 -13.60693359 42.34472656 C-13.60980377 41.41064468 -13.61267395 40.47656281 -13.6156311 39.51417542 C-13.61766588 37.54663484 -13.61217715 35.57907376 -13.59960938 33.61157227 C-13.58352932 30.60484544 -13.59948739 27.59945906 -13.61865234 24.59277344 C-13.61667016 22.67675486 -13.61282701 20.76073711 -13.60693359 18.84472656 C-13.61300629 17.94878281 -13.61907898 17.05283905 -13.62533569 16.12974548 C-13.55940061 10.2648586 -12.59221203 6.94213473 -8.70849609 2.41113281 C-6.01526443 0.16677309 -3.3545623 0.03086308 0 0 Z " fill="#000000" transform="translate(43.20849609375,364.8388671875)"/>
<path d="M0 0 C1.49956993 -0.00929787 1.49956993 -0.00929787 3.0294342 -0.01878357 C5.13997424 -0.02587542 7.2505703 -0.02271886 9.36108398 -0.01000977 C12.5835715 0.00384569 15.80314867 -0.03021323 19.02539062 -0.06835938 C21.07942779 -0.06931072 23.13346858 -0.06745092 25.1875 -0.0625 C26.14704086 -0.07575821 27.10658173 -0.08901642 28.09519958 -0.10267639 C32.39617807 -0.04307129 35.67797916 0.08236586 39.18969727 2.73071289 C43.88424994 8.1193115 43.96891825 13.40376655 43.9609375 20.21875 C43.96522263 21.03710831 43.96950775 21.85546661 43.97392273 22.69862366 C43.97964296 24.42236408 43.98018338 26.14612863 43.97583008 27.86987305 C43.97267006 30.49244756 43.99615753 33.11389277 44.02148438 35.73632812 C44.02375777 37.41796734 44.02446068 39.09960956 44.0234375 40.78125 C44.03264725 41.55750229 44.04185699 42.33375458 44.05134583 43.13352966 C43.99908835 49.34938045 42.75098034 54.10598068 38.61889648 58.96850586 C34.23243499 61.33746291 30.23438836 61.1581599 25.3203125 61.1328125 C24.32059921 61.13901108 23.32088593 61.14520966 22.2908783 61.15159607 C20.18033826 61.15868792 18.0697422 61.15553136 15.95922852 61.14282227 C12.736741 61.12896681 9.51716383 61.16302573 6.29492188 61.20117188 C4.24088471 61.20212322 2.18684392 61.20026342 0.1328125 61.1953125 C-0.82672836 61.20857071 -1.78626923 61.22182892 -2.77488708 61.23548889 C-7.07586557 61.17588379 -10.35766666 61.05044664 -13.86938477 58.40209961 C-18.56393744 53.013501 -18.64860575 47.72904595 -18.640625 40.9140625 C-18.64491013 40.09570419 -18.64919525 39.27734589 -18.65361023 38.43418884 C-18.65933046 36.71044842 -18.65987088 34.98668387 -18.65551758 33.26293945 C-18.65235756 30.64036494 -18.67584503 28.01891973 -18.70117188 25.39648438 C-18.70344527 23.71484516 -18.70414818 22.03320294 -18.703125 20.3515625 C-18.71233475 19.57531021 -18.72154449 18.79905792 -18.73103333 17.99928284 C-18.67877585 11.78343205 -17.43066784 7.02683182 -13.29858398 2.16430664 C-8.91212249 -0.20465041 -4.91407586 -0.0253474 0 0 Z " fill="#000000" transform="translate(231.33984375,451.43359375)"/>
<path d="M0 0 C0.92461029 -0.0127597 1.84922058 -0.02551941 2.80184937 -0.03866577 C3.79874786 -0.04089142 4.79564636 -0.04311707 5.82275391 -0.04541016 C6.84986481 -0.05206696 7.87697571 -0.05872375 8.93521118 -0.06558228 C11.10897021 -0.0757114 13.28276036 -0.08039922 15.45654297 -0.08007812 C18.77965684 -0.08444681 22.10143798 -0.12075225 25.42431641 -0.15869141 C27.53629103 -0.16456039 29.64827196 -0.16852924 31.76025391 -0.17041016 C32.75310394 -0.18478119 33.74595398 -0.19915222 34.76889038 -0.21395874 C39.0702597 -0.18552709 41.69838792 -0.13402836 45.46582031 2.06933594 C48.47499307 5.48213247 49.66886982 8.13742224 49.71484375 12.68847656 C49.72760345 13.54972137 49.74036316 14.41096619 49.75350952 15.29830933 C49.75573517 16.22128815 49.75796082 17.14426697 49.76025391 18.09521484 C49.76691071 19.05195099 49.7735675 20.00868713 49.78042603 20.99441528 C49.79054282 23.01676514 49.79524335 25.03914831 49.79492188 27.06152344 C49.79929093 30.14753551 49.83560963 33.23211235 49.87353516 36.31787109 C49.87940441 38.28531413 49.88337308 40.25276395 49.88525391 42.22021484 C49.89962494 43.1391452 49.91399597 44.05807556 49.92880249 45.00485229 C49.88915846 50.59427161 49.22463025 53.89708603 45.42431641 58.29052734 C42.26357181 60.39769041 41.46645606 60.54713857 37.84863281 60.58105469 C36.92402252 60.59381439 35.99941223 60.6065741 35.04678345 60.61972046 C33.5514357 60.62305893 33.5514357 60.62305893 32.02587891 60.62646484 C30.99876801 60.63312164 29.9716571 60.63977844 28.91342163 60.64663696 C26.7396626 60.65676608 24.56587245 60.6614539 22.39208984 60.66113281 C19.06897597 60.6655015 15.74719483 60.70180694 12.42431641 60.73974609 C10.31234178 60.74561508 8.20036085 60.74958393 6.08837891 60.75146484 C4.59910385 60.77302139 4.59910385 60.77302139 3.07974243 60.79501343 C-1.22162688 60.76658178 -3.84975511 60.71508305 -7.6171875 58.51171875 C-10.62636026 55.09892222 -11.82023701 52.44363244 -11.86621094 47.89257812 C-11.87897064 47.03133331 -11.89173035 46.1700885 -11.90487671 45.28274536 C-11.90710236 44.35976654 -11.909328 43.43678772 -11.91162109 42.48583984 C-11.91827789 41.5291037 -11.92493469 40.57236755 -11.93179321 39.5866394 C-11.94191001 37.56428955 -11.94661053 35.54190638 -11.94628906 33.51953125 C-11.95065812 30.43351917 -11.98697682 27.34894233 -12.02490234 24.26318359 C-12.0307716 22.29574055 -12.03474026 20.32829074 -12.03662109 18.36083984 C-12.05099213 17.44190948 -12.06536316 16.52297913 -12.08016968 15.57620239 C-12.04052564 9.98678308 -11.37599743 6.68396865 -7.57568359 2.29052734 C-4.41493899 0.18336428 -3.61782325 0.03391611 0 0 Z " fill="#000101" transform="translate(41.57568359375,451.70947265625)"/>
<path d="M0 0 C21.45 0 42.9 0 65 0 C65 69.3 65 138.6 65 210 C60.71 210 56.42 210 52 210 C52 141.03 52 72.06 52 1 C34.84 1 17.68 1 0 1 C0 0.67 0 0.34 0 0 Z " fill="#F5BC41" transform="translate(129,109)"/>
<path d="M0 0 C4.29 0 8.58 0 13 0 C13.21044529 24.84352062 13.36904925 49.68690723 13.46630955 74.53114033 C13.51267411 86.06736905 13.57586076 97.60304326 13.67895508 109.13891602 C13.76879229 119.19618092 13.82675522 129.25304415 13.84679645 139.31069916 C13.85850788 144.63408948 13.8859381 149.95633092 13.95157051 155.27935219 C14.01291573 160.295573 14.03145361 165.31017805 14.01796913 170.32673836 C14.02043386 172.16213531 14.03818742 173.9975894 14.07284927 175.83266068 C14.35209128 191.38657444 14.35209128 191.38657444 8.68614197 198.36711121 C7.14577627 199.93303467 5.58440046 201.478646 4 203 C2.68 204.65 1.36 206.3 0 208 C0 139.36 0 70.72 0 0 Z " fill="#6FD6A2" transform="translate(294,15)"/>
<path d="M0 0 C21.45 0 42.9 0 65 0 C65 57.09 65 114.18 65 173 C60.71 173 56.42 173 52 173 C52 116.24 52 59.48 52 1 C35.17 1 18.34 1 1 1 C1 25.09 1 49.18 1 74 C0.67 74 0.34 74 0 74 C0 49.58 0 25.16 0 0 Z " fill="#62D7F6" transform="translate(15,146)"/>
<path d="M0 0 C9.43436429 6.7681309 15.71330408 17.57714643 22.35351562 26.92871094 C25.02663473 30.67759749 27.75860272 34.38303479 30.484375 38.09375 C33.78186621 42.76210835 33.2998303 47.50823725 32.875 53.0625 C31.11192004 58.35173987 28.26344888 60.86258936 23.875 64.0625 C18.24661563 65.93862812 12.15345681 66.04536372 6.6875 63.6875 C2.57159257 59.8459864 -0.76756794 55.5654671 -4.125 51.0625 C-4.66286133 50.34449219 -5.20072266 49.62648438 -5.75488281 48.88671875 C-26.41987632 21.24290696 -26.41987632 21.24290696 -25.125 11.0625 C-23.20034004 5.98761185 -20.04977807 2.09145756 -15.1484375 -0.31640625 C-10.03413804 -1.88623948 -5.06845328 -1.52053599 0 0 Z " fill="#D57D49" transform="translate(463.125,364.9375)"/>
<path d="M0 0 C20.66823087 9.38988154 35.7565122 22.52664069 44.25878906 43.9440918 C47.35536691 52.53311752 48.47614096 60.31795699 48.375 69.4375 C48.38660156 70.47970703 48.39820313 71.52191406 48.41015625 72.59570312 C48.33630172 92.4502623 39.7719378 110.96468446 26.05859375 125.1015625 C18.33081868 132.67172999 9.04200915 138.07589181 -1 142 C-2.10214844 142.46019531 -2.10214844 142.46019531 -3.2265625 142.9296875 C-9.65392836 145.38377265 -16.17349224 145.69402052 -23 146 C-20.77253289 143.77253289 -18.46727408 142.71824371 -15.64257812 141.38671875 C-7.93525456 137.74734445 -1.32771997 133.78992099 5 128 C6.02287109 127.11441406 6.02287109 127.11441406 7.06640625 126.2109375 C13.38426888 120.39998753 17.63840109 113.31234531 22 106 C22.45761719 105.25492187 22.91523438 104.50984375 23.38671875 103.7421875 C26.52016088 98.17421226 27.12364766 92.251835 28 86 C28.36483569 83.91486267 28.73926309 81.8313721 29.125 79.75 C29.29257812 78.83734375 29.46015625 77.9246875 29.6328125 76.984375 C29.81457031 76.00210938 29.81457031 76.00210938 30 75 C30.33 75 30.66 75 31 75 C31.8491367 49.58879787 25.89397311 28.60476732 8.6875 9.421875 C5.91294277 6.5861143 3.30743433 4.20495622 0 2 C0 1.34 0 0.68 0 0 Z " fill="#4D65CD" transform="translate(400,199)"/>
<path d="M0 0 C21.45 0 42.9 0 65 0 C65 34.65 65 69.3 65 105 C58.565 101.535 58.565 101.535 52 98 C52 65.99 52 33.98 52 1 C35.17 1 18.34 1 1 1 C1 30.04 1 59.08 1 89 C2.98 89 4.96 89 7 89 C7 89.33 7 89.66 7 90 C4.69 90 2.38 90 0 90 C0 60.3 0 30.6 0 0 Z " fill="#E34243" transform="translate(359,90)"/>
<path d="M0 0 C11.52614348 4.29562292 21.01493231 12.70858166 26.1875 23.98046875 C30.94987223 35.81771127 29.71199308 47.3301106 25 59 C19.1698333 71.52865609 9.75866591 78.22376367 -3 83 C-7.03074658 84.06715141 -10.90086736 84.16524528 -15.0625 84.1875 C-16.87427734 84.20876953 -16.87427734 84.20876953 -18.72265625 84.23046875 C-21.78742498 84.01494866 -23.43995415 83.61519102 -26 82 C-24.741875 81.814375 -23.48375 81.62875 -22.1875 81.4375 C-11.47298848 79.041499 -2.29432079 71.18733913 3.6875 62.1875 C10.94309265 49.83144123 13.40688857 35.18777834 10.09375 21.1640625 C7.91412269 14.72298435 5.20654944 9.12565315 1.13671875 3.671875 C0 2 0 2 0 0 Z " fill="#60D7F6" transform="translate(387,229)"/>
<path d="M0 0 C10.23 0 20.46 0 31 0 C31 10.23 31 20.46 31 31 C20.77 31 10.54 31 0 31 C0 20.77 0 10.54 0 0 Z " fill="#68CA99" transform="translate(45,380)"/>
<path d="M0 0 C9.9 0 19.8 0 30 0 C30 9.9 30 19.8 30 30 C20.1 30 10.2 30 0 30 C0 20.1 0 10.2 0 0 Z " fill="#FFD15B" transform="translate(229,467)"/>
<path d="M0 0 C9.9 0 19.8 0 30 0 C30 9.9 30 19.8 30 30 C20.1 30 10.2 30 0 30 C0 20.1 0 10.2 0 0 Z " fill="#97E3F8" transform="translate(46,467)"/>
<path d="M0 0 C9.9 0 19.8 0 30 0 C30 9.9 30 19.8 30 30 C20.1 30 10.2 30 0 30 C0 20.1 0 10.2 0 0 Z " fill="#F94653" transform="translate(229,381)"/>
<path d="M0 0 C1.43866173 -0.00929787 1.43866173 -0.00929787 2.90638733 -0.01878357 C4.93294256 -0.0258812 6.95955611 -0.02270872 8.98608398 -0.01000977 C12.08361425 0.00384345 15.17811611 -0.03020044 18.27539062 -0.06835938 C20.24609449 -0.06931071 22.21680213 -0.06745096 24.1875 -0.0625 C25.11159164 -0.07575821 26.03568329 -0.08901642 26.98777771 -0.10267639 C31.52702289 -0.03710557 33.53583275 0.0903429 37.24438477 2.91821289 C39.16015625 5.56640625 39.16015625 5.56640625 39.78515625 8.56640625 C38.91969812 12.72060525 37.52401212 13.98811029 34.16015625 16.56640625 C30.91711154 17.28801892 27.75287751 17.24414479 24.44140625 17.1953125 C23.03816101 17.19893044 23.03816101 17.19893044 21.60656738 17.20262146 C19.63301342 17.20164403 17.6594317 17.18827515 15.68603516 17.16333008 C12.66994838 17.12901765 9.65679213 17.14267721 6.640625 17.16210938 C4.72003965 17.15521066 2.79946184 17.14553805 0.87890625 17.1328125 C-0.46971497 17.1402523 -0.46971497 17.1402523 -1.84558105 17.14784241 C-6.03413338 17.06928582 -8.28007779 16.91495154 -11.90795898 14.65600586 C-13.99449194 12.39913292 -14.50265166 11.58744454 -14.40234375 8.56640625 C-14.40363281 7.90640625 -14.40492188 7.24640625 -14.40625 6.56640625 C-12.36627241 -0.63682496 -6.21892104 -0.03330581 0 0 Z " fill="#000000" transform="translate(304.83984375,459.43359375)"/>
<path d="M0 0 C1.43866173 -0.00929787 1.43866173 -0.00929787 2.90638733 -0.01878357 C4.93294256 -0.0258812 6.95955611 -0.02270872 8.98608398 -0.01000977 C12.08361425 0.00384345 15.17811611 -0.03020044 18.27539062 -0.06835938 C20.24609449 -0.06931071 22.21680213 -0.06745096 24.1875 -0.0625 C25.11159164 -0.07575821 26.03568329 -0.08901642 26.98777771 -0.10267639 C31.52652298 -0.03711279 33.53866807 0.09448743 37.25219727 2.91430664 C39.16015625 5.56640625 39.16015625 5.56640625 39.66015625 8.62890625 C39.11270817 11.84516372 38.45258715 13.27397535 36.16015625 15.56640625 C33.45839361 16.4669938 31.82413893 16.70561932 29.04345703 16.7434082 C27.80669724 16.76266106 27.80669724 16.76266106 26.54495239 16.78230286 C25.65742279 16.78968979 24.76989319 16.79707672 23.85546875 16.8046875 C22.48127274 16.81679512 22.48127274 16.81679512 21.07931519 16.82914734 C19.14094936 16.84297498 17.20255933 16.85370304 15.26416016 16.86157227 C12.30324177 16.87880102 9.34343558 16.92270039 6.3828125 16.96679688 C4.49870612 16.97692282 2.61459026 16.98543923 0.73046875 16.9921875 C-0.59475296 17.01844963 -0.59475296 17.01844963 -1.94674683 17.04524231 C-6.11723465 17.0305566 -8.28030951 16.91425621 -11.89868164 14.66479492 C-13.99156379 12.40239748 -14.50288817 11.5945675 -14.40234375 8.56640625 C-14.40363281 7.90640625 -14.40492188 7.24640625 -14.40625 6.56640625 C-12.36627241 -0.63682496 -6.21892104 -0.03330581 0 0 Z " fill="#000000" transform="translate(304.83984375,488.43359375)"/>
<path d="M0 0 C0.96006454 -0.00241196 1.92012909 -0.00482391 2.9092865 -0.00730896 C4.93411398 -0.00633149 6.95896851 0.0070381 8.98364258 0.03198242 C12.08311614 0.06633169 15.17974436 0.05262604 18.27929688 0.03320312 C20.24871005 0.04010063 22.21811587 0.04977215 24.1875 0.0625 C25.11361588 0.05754013 26.03973175 0.05258026 26.99391174 0.04747009 C33.40071657 0.16483681 33.40071657 0.16483681 36.60693359 2.53930664 C38.13335006 4.78485469 38.59510315 5.93609447 38.58984375 8.62890625 C38.61175781 9.28890625 38.63367188 9.94890625 38.65625 10.62890625 C37.63290828 13.88326003 35.89718101 14.8380966 33.02734375 16.62890625 C29.85767479 17.20416679 26.74158351 17.16616326 23.52734375 17.125 C22.61404297 17.12645523 21.70074219 17.12791046 20.75976562 17.12940979 C18.8333008 17.12775351 16.90682238 17.11622266 14.98046875 17.09545898 C12.03718676 17.06650309 9.09570699 17.07485601 6.15234375 17.08789062 C4.27733502 17.08165274 2.40233197 17.07326142 0.52734375 17.0625 C-0.7884668 17.06690346 -0.7884668 17.06690346 -2.13085938 17.07139587 C-6.87709981 16.99836653 -10.13536865 16.74337144 -13.97265625 13.62890625 C-15.4169648 10.74028916 -15.34954131 8.83242924 -14.97265625 5.62890625 C-10.77081034 -0.25303018 -6.67655468 -0.09579045 0 0 Z " fill="#000000" transform="translate(121.97265625,488.37109375)"/>
<path d="M0 0 C0.96006454 -0.00241196 1.92012909 -0.00482391 2.9092865 -0.00730896 C4.93411398 -0.00633149 6.95896851 0.0070381 8.98364258 0.03198242 C12.08311614 0.06633169 15.17974436 0.05262604 18.27929688 0.03320312 C20.24871005 0.04010063 22.21811587 0.04977215 24.1875 0.0625 C25.11361588 0.05754013 26.03973175 0.05258026 26.99391174 0.04747009 C33.40071657 0.16483681 33.40071657 0.16483681 36.60693359 2.53930664 C38.13335006 4.78485469 38.59510315 5.93609447 38.58984375 8.62890625 C38.61175781 9.28890625 38.63367188 9.94890625 38.65625 10.62890625 C37.63085541 13.88978843 35.90701603 14.83584222 33.02734375 16.62890625 C29.78793622 17.22724256 26.59598191 17.21344771 23.30859375 17.1953125 C22.37309692 17.20151108 21.4376001 17.20770966 20.47375488 17.21409607 C18.5002547 17.22118485 16.52669461 17.21803669 14.55322266 17.20532227 C11.53696548 17.1914505 8.5238081 17.22554764 5.5078125 17.26367188 C3.58723883 17.26462307 1.66666128 17.26276423 -0.25390625 17.2578125 C-1.15298706 17.27107071 -2.05206787 17.28432892 -2.97839355 17.29798889 C-7.45809782 17.23149645 -9.38332688 17.08060976 -13.04101562 14.27709961 C-14.97265625 11.62890625 -14.97265625 11.62890625 -15.59765625 8.62890625 C-13.81355624 0.06522622 -7.32222398 -0.10505406 0 0 Z " fill="#000000" transform="translate(121.97265625,459.37109375)"/>
<path d="M0 0 C0.84812759 -0.0033284 1.69625519 -0.0066568 2.57008362 -0.01008606 C4.36125141 -0.01514141 6.15242859 -0.01749482 7.94360352 -0.01733398 C10.67805542 -0.01952057 13.4121038 -0.03769118 16.14648438 -0.05664062 C17.88932154 -0.05957485 19.63216062 -0.06155945 21.375 -0.0625 C22.18972275 -0.06968552 23.0044455 -0.07687103 23.84385681 -0.08427429 C28.07509753 -0.06731324 31.43454093 0.11619046 35.25390625 2.16796875 C37.42109831 4.82770445 37.24925488 6.25634471 37.06640625 9.73046875 C36.24573564 13.20253669 35.9803859 14.09800454 33.25390625 16.16796875 C31.21168518 16.54891968 31.21168518 16.54891968 28.84594727 16.55615234 C27.95815079 16.56560883 27.07035431 16.57506531 26.15565491 16.58480835 C25.19936691 16.57873566 24.24307892 16.57266296 23.2578125 16.56640625 C22.27272202 16.56927643 21.28763153 16.57214661 20.27268982 16.57510376 C18.18886745 16.57714568 16.10502597 16.57160691 14.02124023 16.55908203 C10.8320827 16.54304757 7.64419584 16.5589179 4.45507812 16.578125 C2.43098679 16.57614226 0.40689624 16.57229794 -1.6171875 16.56640625 C-3.04858315 16.57551529 -3.04858315 16.57551529 -4.50889587 16.58480835 C-5.84531883 16.57062363 -5.84531883 16.57062363 -7.20874023 16.55615234 C-7.99022934 16.55376556 -8.77171844 16.55137878 -9.57688904 16.54891968 C-12.31830594 16.06747811 -13.71471654 15.04017982 -15.74609375 13.16796875 C-16.2421875 11.01171875 -16.2421875 11.01171875 -16.18359375 8.66796875 C-16.18230469 7.89453125 -16.18101562 7.12109375 -16.1796875 6.32421875 C-15.64217469 3.6511821 -14.91989954 2.78476762 -12.74609375 1.16796875 C-8.54896871 -0.120163 -4.3514288 0.00592885 0 0 Z " fill="#000000" transform="translate(306.74609375,401.83203125)"/>
<path d="M0 0 C0.84954254 -0.0033284 1.69908508 -0.0066568 2.57437134 -0.01008606 C4.37151549 -0.01514783 6.16866904 -0.01749462 7.96582031 -0.01733398 C10.70914287 -0.01951739 13.45206125 -0.03767238 16.1953125 -0.05664062 C17.94270696 -0.05957535 19.69010333 -0.06155962 21.4375 -0.0625 C22.2553598 -0.06968552 23.0732196 -0.07687103 23.91586304 -0.08427429 C29.25894169 -0.0629461 33.39252694 0.20893319 37.3515625 4.16796875 C38.02773859 11.15512168 38.02773859 11.15512168 35.95361328 14.26196289 C31.95032319 17.19437852 28.10150924 16.75963357 23.2578125 16.734375 C22.27413696 16.74057358 21.29046143 16.74677216 20.27697754 16.75315857 C18.19914743 16.76025622 16.12126045 16.7570837 14.04345703 16.74438477 C10.86254396 16.73051663 7.68457093 16.76459396 4.50390625 16.80273438 C2.48437428 16.80368555 0.46483862 16.80182685 -1.5546875 16.796875 C-2.98137756 16.81676231 -2.98137756 16.81676231 -4.43688965 16.83705139 C-10.9916202 16.74450973 -10.9916202 16.74450973 -14.28320312 13.85522461 C-16.14721439 10.18620244 -15.73579123 8.08244217 -14.6484375 4.16796875 C-11.032282 -0.76315239 -5.56792424 0.0075387 0 0 Z " fill="#000000" transform="translate(122.6484375,401.83203125)"/>
<path d="M0 0 C0.90781723 -0.01591187 1.81563446 -0.03182373 2.7509613 -0.04821777 C3.72912308 -0.04841919 4.70728485 -0.04862061 5.71508789 -0.04882812 C7.22601768 -0.06024841 7.22601768 -0.06024841 8.76747131 -0.07189941 C10.89834107 -0.08270769 13.02926383 -0.08555058 15.16015625 -0.08105469 C18.4222035 -0.08008276 21.6818963 -0.12168891 24.94360352 -0.16601562 C27.01326006 -0.17122279 29.0829248 -0.17391082 31.15258789 -0.17382812 C32.6167942 -0.19842102 32.6167942 -0.19842102 34.11058044 -0.22351074 C40.84097436 -0.15476075 40.84097436 -0.15476075 44.15087891 2.73046875 C45.99248835 6.40102594 45.58562446 8.51255273 44.50024414 12.41992188 C42.89970511 14.53498001 42.04528509 15.32042863 39.41333008 15.8008728 C38.21111816 15.80445297 38.21111816 15.80445297 36.98461914 15.80810547 C35.61805176 15.82229019 35.61805176 15.82229019 34.22387695 15.83676147 C33.24257813 15.83068878 32.2612793 15.82461609 31.25024414 15.81835938 C30.24058594 15.82122955 29.23092773 15.82409973 28.19067383 15.82705688 C26.05557698 15.82909876 23.92046148 15.82356033 21.78540039 15.81103516 C18.51284043 15.79498366 15.24151558 15.81088012 11.96899414 15.83007812 C9.89607474 15.82809572 7.82315611 15.82425209 5.75024414 15.81835938 C4.76894531 15.82443207 3.78764648 15.83050476 2.77661133 15.83676147 C1.86556641 15.82730499 0.95452148 15.81784851 0.01586914 15.80810547 C-0.78560547 15.80571869 -1.58708008 15.80333191 -2.4128418 15.8008728 C-5.01442828 15.32597218 -5.90189884 14.49073986 -7.49975586 12.41992188 C-7.89819336 10.26367188 -7.89819336 10.26367188 -7.87475586 7.91992188 C-7.88249023 7.14648438 -7.89022461 6.37304688 -7.89819336 5.57617188 C-7.0599473 1.03978142 -4.28125074 0.04514282 0 0 Z " fill="#000000" transform="translate(298.499755859375,373.580078125)"/>
<path d="M0 0 C0.91104492 -0.00945648 1.82208984 -0.01891296 2.76074219 -0.02865601 C3.74204102 -0.02258331 4.72333984 -0.01651062 5.734375 -0.01025391 C6.7440332 -0.01312408 7.75369141 -0.01599426 8.79394531 -0.01895142 C10.92904216 -0.02099329 13.06415766 -0.01545487 15.19921875 -0.00292969 C18.47177871 0.01312181 21.74310356 -0.00277465 25.015625 -0.02197266 C27.0885444 -0.01999025 29.16146303 -0.01614662 31.234375 -0.01025391 C32.70632324 -0.01936295 32.70632324 -0.01936295 34.20800781 -0.02865601 C35.5745752 -0.01447128 35.5745752 -0.01447128 36.96875 0 C38.17096191 0.00358017 38.17096191 0.00358017 39.39746094 0.00723267 C41.99904742 0.48213329 42.88651798 1.31736561 44.484375 3.38818359 C44.8828125 5.54443359 44.8828125 5.54443359 44.859375 7.88818359 C44.87097656 9.04833984 44.87097656 9.04833984 44.8828125 10.23193359 C44.38171642 12.94374768 43.62886634 13.68917962 41.484375 15.38818359 C39.40419006 15.78259277 39.40419006 15.78259277 36.98461914 15.80810547 C36.07680191 15.82401733 35.16898468 15.8399292 34.23365784 15.85632324 C33.25549606 15.85652466 32.27733429 15.85672607 31.26953125 15.85693359 C29.75860146 15.86835388 29.75860146 15.86835388 28.21714783 15.88000488 C26.08627807 15.89081316 23.95535531 15.89365605 21.82446289 15.88916016 C18.56241564 15.88818822 15.30272284 15.92979438 12.04101562 15.97412109 C9.97135908 15.97932826 7.90169435 15.98201628 5.83203125 15.98193359 C4.36782494 16.00652649 4.36782494 16.00652649 2.8740387 16.03161621 C-3.85635522 15.96286622 -3.85635522 15.96286622 -7.16625977 13.07763672 C-9.00786921 9.40707952 -8.60100532 7.29555274 -7.515625 3.38818359 C-5.26158874 0.40955098 -3.66843529 0.01092455 0 0 Z " fill="#000000" transform="translate(115.515625,373.61181640625)"/>
<path d="M0 0 C9.43436429 6.7681309 15.71330408 17.57714643 22.35351562 26.92871094 C25.02663473 30.67759749 27.75860272 34.38303479 30.484375 38.09375 C33.77255562 42.74892705 33.3276943 47.52089737 32.875 53.0625 C30.76861702 58.61569149 30.76861702 58.61569149 27.875 60.0625 C27.67197266 58.95455078 27.67197266 58.95455078 27.46484375 57.82421875 C24.52407649 43.96563293 15.84105799 34.25439077 7.2421875 23.39453125 C4.51941334 19.9365027 2.02119007 16.39853807 -0.4375 12.75 C-3.92330714 7.86237365 -7.67835479 5.42749068 -13.125 3.0625 C-14.46108619 2.4013677 -15.79527988 1.73634466 -17.125 1.0625 C-11.73801505 -2.05301434 -5.850226 -1.7550678 0 0 Z " fill="#C56B35" transform="translate(463.125,364.9375)"/>
<path d="M0 0 C0.33 0 0.66 0 1 0 C1.30769231 6.76923077 1.30769231 6.76923077 -1 10 C-3.125 11.25 -3.125 11.25 -5 12 C-3.41037341 7.96479403 -1.71767682 3.98188718 0 0 Z " fill="#397CC2" transform="translate(426,291)"/>
</svg>
